<?xml version="1.0" encoding="iso-8859-1"?>
<!-- Generator: Adobe Illustrator 19.0.0, SVG Export Plug-In . SVG Version: 6.00 Build 0)  -->
<svg version="1.1" id="Capa_1" xmlns="http://www.w3.org/2000/svg" xmlns:xlink="http://www.w3.org/1999/xlink" x="0px" y="0px"
	 viewBox="0 0 490 490" style="enable-background:new 0 0 490 490;" xml:space="preserve">
<g>
	<path d="M463.317,31.402c-3.858-4.134-40.71-39.761-146.55-22.077C207.206,27.697,148.568,73.797,109.726,111.889
		C70.822,150.027,23.789,207.624,5.034,315.225C-13.124,419.473,23.437,455.728,26.682,458.56
		c3.093,3.322,27.421,27.007,91.77,27.007c15.785,0,33.943-1.439,54.78-4.93c109.561-18.372,168.199-64.472,207.042-102.564
		c38.904-38.138,85.937-95.735,104.692-203.336C503.124,70.49,466.563,34.235,463.317,31.402z M454.79,169.471
		c-17.147,98.415-58.133,149.628-95.965,186.74c-37.862,37.128-90.116,77.348-190.659,94.22
		c-89.336,14.989-119.053-12.738-119.819-13.473c-0.276-0.276-28.355-29.212-13.152-116.481
		c17.148-98.415,58.133-149.628,95.965-186.74c37.862-37.112,90.117-77.348,190.675-94.22
		C411.14,24.497,440.888,52.24,441.638,52.99C441.914,53.265,469.993,82.202,454.79,169.471z"/>
	<polygon points="378.286,93.973 333.379,138.018 305.279,110.46 283.838,132.323 311.514,159.464 274.844,195.43 246.749,167.879 
		225.309,189.742 252.978,216.876 216.322,252.829 188.219,225.269 166.778,247.132 194.456,274.275 157.798,310.23 
		129.691,282.666 108.25,304.529 135.932,331.676 91.471,375.284 112.912,397.144 157.798,353.119 184.727,379.528 206.168,357.665 
		179.664,331.673 216.322,295.718 243.244,322.12 264.685,300.257 238.188,274.272 274.844,238.32 301.775,264.731 323.216,242.868 
		296.709,216.873 333.379,180.907 360.315,207.323 381.756,185.459 355.245,159.461 399.727,115.833 	"/>
</g>
<g>
</g>
<g>
</g>
<g>
</g>
<g>
</g>
<g>
</g>
<g>
</g>
<g>
</g>
<g>
</g>
<g>
</g>
<g>
</g>
<g>
</g>
<g>
</g>
<g>
</g>
<g>
</g>
<g>
</g>
</svg>
