<?xml version="1.0" encoding="iso-8859-1"?>
<!-- Generator: Adobe Illustrator 19.0.0, SVG Export Plug-In . SVG Version: 6.00 Build 0)  -->
<svg version="1.1" id="Capa_1" xmlns="http://www.w3.org/2000/svg" xmlns:xlink="http://www.w3.org/1999/xlink" x="0px" y="0px"
	 viewBox="0 0 490 490" style="enable-background:new 0 0 490 490;" xml:space="preserve">
<g>
	<path d="M347.283,109.039c-1.005,0-1.989,0.021-2.966,0.049c15.72-11.524,30.505-27.761,44.225-48.623l12.087-18.388l-21.493-4.726
		c-2.836-0.627-60.95-12.689-118.363,30.925c6.383-15.02,16.546-31.012,32.332-46.95L271.597,0
		c-19.278,19.459-31.647,39.141-39.361,57.742C175.704-2.945,108.03,5.534,104.972,5.983l-21.78,2.999l10.572,19.281
		c22.492,40.941,49.938,66.068,81.624,74.672c8.391,2.272,16.373,3.166,23.659,3.166c8.382,0,15.875-1.166,22.137-2.718
		c-0.915,11.527-0.378,21.844,0.732,30.436c-17.335-9.783-41.769-23.493-75.518-24.72c-1.212-0.045-2.439-0.061-3.681-0.061
		c-53.345,0-140.058,40.82-140.058,160.642C2.658,392.291,101.291,490,151.804,490c50.513,0,68.068-14.313,93.196-14.313
		c25.128,0,42.682,14.313,93.196,14.313s149.146-97.709,149.146-220.319C487.342,149.858,400.629,109.039,347.283,109.039z
		 M183.339,73.687c-17.343-4.695-33.428-16.964-48.075-36.548c19.342,3.196,46.56,12.541,71.869,38.154
		C200.394,76.186,192.26,76.111,183.339,73.687z M253.998,141.264c-1.063-4.352-2.187-10.338-2.706-17.59
		c6.47,2.521,14.785,4.91,24.488,5.86C267.094,134.271,259.897,138.668,253.998,141.264z M346.45,66.038
		c-15.964,18.16-32.807,29.051-50.256,32.504c-9.36,1.833-17.676,1.257-24.431-0.167C299.042,74.823,326.927,67.689,346.45,66.038z
		 M338.196,459.707c-25.613,0-40.638-4.044-55.163-7.952c-11.617-3.12-23.628-6.361-38.032-6.361
		c-14.389,0-26.415,3.241-38.033,6.361c-14.525,3.908-29.551,7.952-55.163,7.952c-28.733,0-118.853-78.852-118.853-190.026
		c0-44.591,13.404-79.125,39.85-102.617c23.022-20.448,51.21-27.733,69.916-27.733c0.863,0,1.727,0.015,2.575,0.045
		c26.536,0.969,46.181,12.057,61.979,20.963c12.965,7.316,24.158,13.632,37.73,13.632c13.571,0,24.764-6.316,37.73-13.632
		c15.798-8.906,35.443-20.008,61.979-20.963c0.848-0.03,1.696-0.045,2.575-0.045c18.706,0,46.893,7.285,69.916,27.748
		c26.445,23.477,39.85,58.011,39.85,102.601C457.049,380.855,366.928,459.707,338.196,459.707z"/>
</g>
<g>
</g>
<g>
</g>
<g>
</g>
<g>
</g>
<g>
</g>
<g>
</g>
<g>
</g>
<g>
</g>
<g>
</g>
<g>
</g>
<g>
</g>
<g>
</g>
<g>
</g>
<g>
</g>
<g>
</g>
</svg>
