<?xml version="1.0" encoding="iso-8859-1"?>
<!-- Generator: Adobe Illustrator 19.0.0, SVG Export Plug-In . SVG Version: 6.00 Build 0)  -->
<svg version="1.1" id="Capa_1" xmlns="http://www.w3.org/2000/svg" xmlns:xlink="http://www.w3.org/1999/xlink" x="0px" y="0px"
	 viewBox="0 0 490 490" style="enable-background:new 0 0 490 490;" xml:space="preserve">
<g>
	<path d="M414.82,30.623h20.005V0H119.346C83.915,0,55.068,28.893,55.053,64.416v342.826c0,28.985,8.008,51.079,23.764,65.671
		C95.644,488.454,115.503,490,122.27,490c1.286,0,2.113-0.046,2.358-0.077h310.319V98.208h-20.811
		C408.533,90.856,395.849,68.152,414.82,30.623z M404.34,459.316l-280.722,0.031c-0.107-0.031-13.887,0.643-24.253-9.172
		c-9.065-8.59-13.673-23.029-13.673-42.934V119.277c9.784,6.048,21.314,9.554,33.655,9.554h2.266v227.912l86.281-67.646
		l86.281,67.646V128.831H404.34V459.316z M152.235,128.831H263.55v164.982l-55.657-43.622l-55.657,43.622V128.831z M119.346,98.208
		c-18.558,0-33.655-15.159-33.655-33.793c0-18.634,15.097-33.793,33.655-33.793h261.983c-11.124,29.105-7.971,51.894-1.839,67.585
		H119.346z"/>
</g>
<g>
</g>
<g>
</g>
<g>
</g>
<g>
</g>
<g>
</g>
<g>
</g>
<g>
</g>
<g>
</g>
<g>
</g>
<g>
</g>
<g>
</g>
<g>
</g>
<g>
</g>
<g>
</g>
<g>
</g>
</svg>
