<?xml version="1.0" encoding="iso-8859-1"?>
<!-- Generator: Adobe Illustrator 19.0.0, SVG Export Plug-In . SVG Version: 6.00 Build 0)  -->
<svg version="1.1" id="Capa_1" xmlns="http://www.w3.org/2000/svg" xmlns:xlink="http://www.w3.org/1999/xlink" x="0px" y="0px"
	 viewBox="0 0 490 490" style="enable-background:new 0 0 490 490;" xml:space="preserve">
<g>
	<polygon points="408.706,97.571 459.375,97.571 459.375,441.735 30.625,441.735 30.625,97.571 81.386,97.571 81.386,66.946 
		0,66.946 0,472.36 490,472.36 490,66.946 408.706,66.946 	"/>
	<rect x="200.349" y="66.946" width="89.195" height="30.625"/>
	<path d="M102.64,143.463h76.563V17.64H102.64V143.463z M133.265,48.265h15.313v64.573h-15.313V48.265z"/>
	<path d="M387.36,17.64h-76.563v125.823h76.563V17.64z M356.735,112.838h-15.313V48.265h15.313V112.838z"/>
	<path d="M125.409,205.616l9.034,32.049c7.871-4.655,24.194-11.362,39.629-11.362c18.651,0,27.961,8.452,27.961,19.814
		c0,16.032-18.942,21.56-33.795,21.851h-17.196v31.758h18.069c19.508,0,38.159,8.452,38.159,27.103
		c0,14.271-11.653,25.342-34.668,25.342c-18.069,0-36.122-7.564-43.993-11.653l-9.019,33.198
		c11.071,6.998,31.743,13.398,56.228,13.398c48.081,0,77.512-24.469,77.512-57.973c0-24.76-18.375-41.956-41.099-46.045v-0.582
		c23.321-8.146,34.683-23.888,34.683-43.993c0-25.924-22.433-47.193-62.934-47.193C159.51,191.33,136.771,198.312,125.409,205.616z"
		/>
	<polygon points="287.707,251.064 323.829,233.883 324.395,233.883 324.395,383.93 367.24,383.93 367.24,194.545 330.52,194.545 
		280.418,217.851 	"/>
</g>
<g>
</g>
<g>
</g>
<g>
</g>
<g>
</g>
<g>
</g>
<g>
</g>
<g>
</g>
<g>
</g>
<g>
</g>
<g>
</g>
<g>
</g>
<g>
</g>
<g>
</g>
<g>
</g>
<g>
</g>
</svg>
