<?xml version="1.0" encoding="iso-8859-1"?>
<!-- Generator: Adobe Illustrator 19.0.0, SVG Export Plug-In . SVG Version: 6.00 Build 0)  -->
<svg version="1.1" id="Capa_1" xmlns="http://www.w3.org/2000/svg" xmlns:xlink="http://www.w3.org/1999/xlink" x="0px" y="0px"
	 viewBox="0 0 490 490" style="enable-background:new 0 0 490 490;" xml:space="preserve">
<g>
	<path d="M190.418,165.528l-57.942,190.074h44.452l13.506-48.801h54.283l14.623,48.801h46.137l-58.785-190.074H190.418z
		 M196.635,274.645l11.255-40.333c3.093-10.994,5.895-25.388,8.713-36.658h0.551c2.833,11.285,6.186,25.388,9.57,36.658
		l11.806,40.333H196.635z"/>
	<polygon points="320.682,128.87 304.298,128.87 304.298,165.436 269.324,165.436 269.324,181.208 304.298,181.208 304.298,218.111 
		320.682,218.111 320.682,181.208 355.64,181.208 355.64,165.436 320.682,165.436 	"/>
	<path d="M43.801,0v490h402.397V73.592L372.898,0H43.801z M367.998,38.465l38.973,39.124h-38.973V38.465z M74.426,459.375V30.625
		h262.946v77.588h78.216v351.162H74.426z"/>
</g>
<g>
</g>
<g>
</g>
<g>
</g>
<g>
</g>
<g>
</g>
<g>
</g>
<g>
</g>
<g>
</g>
<g>
</g>
<g>
</g>
<g>
</g>
<g>
</g>
<g>
</g>
<g>
</g>
<g>
</g>
</svg>
