<?xml version="1.0" encoding="iso-8859-1"?>
<!-- Generator: Adobe Illustrator 19.0.0, SVG Export Plug-In . SVG Version: 6.00 Build 0)  -->
<svg version="1.1" id="Capa_1" xmlns="http://www.w3.org/2000/svg" xmlns:xlink="http://www.w3.org/1999/xlink" x="0px" y="0px"
	 viewBox="0 0 490 490" style="enable-background:new 0 0 490 490;" xml:space="preserve">
<g>
	<path d="M375.677,176.951c-1.104,0-2.198,0.011-3.284,0.031H210.644l-25.347-81.753h-79.824l-24.984,81.753H0v30.625h71.129
		l-47.84,156.54H0v30.625h490v-30.625H376.065c10.755-3.714,19.982-9.899,26.93-18.375h1.118l3.384,18.344v-0.015h51.282
		c-1.868-10.106-2.618-26.95-2.618-44.544v-63.624c0-18.074-3.436-34.893-11.937-48.326H490v-30.625H378.664
		C377.679,176.962,376.684,176.951,375.677,176.951z M142.59,140.706h0.796c2.769,11.056,5.921,24.036,9.185,36.275h-18.368
		C137.085,164.808,139.834,151.709,142.59,140.706z M161.365,207.607l12.355,42.063l-59.474,0l11.768-42.063H161.365z
		 M105.472,295.148h77.037l20.735,68.998H86.329L105.472,295.148z M400.759,297.491c0,3.384-0.368,6.753-1.118,9.739
		c-3.736,11.607-15.343,20.963-29.584,20.963c-12.725,0-22.448-7.12-22.448-21.713c0-22.096,23.214-29.186,53.15-28.818V297.491z
		 M315.039,229.749c11.974-7.488,31.819-13.843,50.531-13.843c28.068,0,33.32,13.843,33.32,23.581v2.618
		c-64.772-0.383-107.433,22.463-107.433,69.993c0,22.388,13.006,43.446,35.785,52.047h-58.569l-48.535-156.54h88.57L315.039,229.749
		z"/>
</g>
<g>
</g>
<g>
</g>
<g>
</g>
<g>
</g>
<g>
</g>
<g>
</g>
<g>
</g>
<g>
</g>
<g>
</g>
<g>
</g>
<g>
</g>
<g>
</g>
<g>
</g>
<g>
</g>
<g>
</g>
</svg>
