<?xml version="1.0" encoding="iso-8859-1"?>
<!-- Generator: Adobe Illustrator 19.0.0, SVG Export Plug-In . SVG Version: 6.00 Build 0)  -->
<svg version="1.1" id="Capa_1" xmlns="http://www.w3.org/2000/svg" xmlns:xlink="http://www.w3.org/1999/xlink" x="0px" y="0px"
	 viewBox="0 0 490 490" style="enable-background:new 0 0 490 490;" xml:space="preserve">
<path d="M288.237,269.69l-30.748-97.443h56.6v-30.594h-53.451l93.759-46.657V0H135.587v94.996l93.759,46.657H175.88v30.594h56.616
	l-30.748,97.443H63.353l111.976,83.783L132.252,490l112.74-84.395l112.74,84.379l-43.062-136.512l111.976-83.783H288.237z
	 M166.181,30.594h157.622v45.479l-78.811,39.191l-78.811-39.207V30.594z M299.955,408.527l-54.963-41.134l-54.948,41.134
	l21.003-66.558l-55.728-41.685h68.868l20.804-65.962l20.804,65.946h68.899l-55.728,41.685L299.955,408.527z"/>
<g>
</g>
<g>
</g>
<g>
</g>
<g>
</g>
<g>
</g>
<g>
</g>
<g>
</g>
<g>
</g>
<g>
</g>
<g>
</g>
<g>
</g>
<g>
</g>
<g>
</g>
<g>
</g>
<g>
</g>
</svg>
