<?xml version="1.0" encoding="iso-8859-1"?>
<!-- Generator: Adobe Illustrator 19.0.0, SVG Export Plug-In . SVG Version: 6.00 Build 0)  -->
<svg version="1.1" id="Capa_1" xmlns="http://www.w3.org/2000/svg" xmlns:xlink="http://www.w3.org/1999/xlink" x="0px" y="0px"
	 viewBox="0 0 490 490" style="enable-background:new 0 0 490 490;" xml:space="preserve">
<g>
	<path d="M245.061,339.974l-144.768-87.345v108.726c-0.015,1.53,0.046,38.078,37.114,56.551
		c29.6,14.784,99.237,55.373,99.941,55.786l7.714,4.484l7.714-4.469c0.704-0.428,70.311-41.002,99.925-55.786
		c37.068-18.473,37.13-55.021,37.114-56.414V252.629L245.061,339.974z M359.205,361.462c-0.031,1.959-0.888,19.453-20.156,29.064
		c-24.84,12.382-74.749,41.078-93.987,52.235c-19.238-11.142-69.163-39.838-94.002-52.235
		c-19.253-9.596-20.126-27.105-20.156-29.018v-54.654l114.159,68.872l114.143-68.872V361.462z"/>
	<path d="M0,158.321l245.796,148.426L417.838,202.85v158.658h30.61V184.364L490,159.27L245.826,11.823L0,158.321z M245.796,270.995
		L59.52,158.505L245.75,47.514L430.801,159.27L245.796,270.995z"/>
</g>
<g>
</g>
<g>
</g>
<g>
</g>
<g>
</g>
<g>
</g>
<g>
</g>
<g>
</g>
<g>
</g>
<g>
</g>
<g>
</g>
<g>
</g>
<g>
</g>
<g>
</g>
<g>
</g>
<g>
</g>
</svg>
