<?xml version="1.0" encoding="iso-8859-1"?>
<!-- Generator: Adobe Illustrator 19.0.0, SVG Export Plug-In . SVG Version: 6.00 Build 0)  -->
<svg version="1.1" id="Capa_1" xmlns="http://www.w3.org/2000/svg" xmlns:xlink="http://www.w3.org/1999/xlink" x="0px" y="0px"
	 viewBox="0 0 490 490" style="enable-background:new 0 0 490 490;" xml:space="preserve">
<g>
	<path d="M191.962,363.139c-17.536-12.282-41.299-19.719-67.823-19.719c-55.205,0-98.45,32.204-98.45,73.29S68.949,490,124.139,490
		c55.205,0,98.466-32.204,98.466-73.29c0-0.389-0.011-0.776-0.019-1.164h0.004V213.522l211.096-60.925v157.373
		c-17.535-12.282-41.302-19.718-67.839-19.718c-55.22,0-98.466,32.189-98.466,73.275s43.261,73.29,98.466,73.29
		s98.466-32.204,98.466-73.29c0-0.287-0.01-0.572-0.014-0.857h0.014V0l-272.35,73.887V363.139z M124.139,459.373
		c-36.768,0-67.823-19.54-67.823-42.663c0-23.123,31.071-42.663,67.823-42.663c36.768,0,67.839,19.54,67.839,42.663
		C191.977,439.833,160.906,459.373,124.139,459.373z M365.846,406.189c-36.783,0-67.839-19.54-67.839-42.663
		c0-23.123,31.071-42.648,67.839-42.648c36.768,0,67.839,19.525,67.839,42.648C433.685,386.65,402.629,406.189,365.846,406.189z
		 M433.685,40.045v80.675l-211.096,60.925V97.302L433.685,40.045z"/>
</g>
<g>
</g>
<g>
</g>
<g>
</g>
<g>
</g>
<g>
</g>
<g>
</g>
<g>
</g>
<g>
</g>
<g>
</g>
<g>
</g>
<g>
</g>
<g>
</g>
<g>
</g>
<g>
</g>
<g>
</g>
</svg>
