<?xml version="1.0" encoding="iso-8859-1"?>
<!-- Generator: Adobe Illustrator 19.0.0, SVG Export Plug-In . SVG Version: 6.00 Build 0)  -->
<svg version="1.1" id="Capa_1" xmlns="http://www.w3.org/2000/svg" xmlns:xlink="http://www.w3.org/1999/xlink" x="0px" y="0px"
	 viewBox="0 0 490 490" style="enable-background:new 0 0 490 490;" xml:space="preserve">
<g>
	<path d="M275.411,64.741L428.719,218.05L490,156.769L336.691,3.461L275.411,64.741z M428.72,174.716L318.73,64.726l17.962-17.962
		l109.99,109.99L428.72,174.716z"/>
	<path d="M179.34,467.429l236.624-236.624L262.655,77.512L26.016,314.136l-1.887,12.505l-0.228,0.228l0.168,0.168L0,486.539
		L179.34,467.429z M50.975,353.943l87.085,87.086L36.199,451.887L50.975,353.943z M95.79,355.448L296.539,154.7l42.215,42.215
		L138.006,397.664L95.79,355.448z M171.896,431.554l-12.236-12.236L360.41,218.57l12.235,12.236L171.896,431.554z M274.884,133.045
		L74.135,333.793l-12.236-12.236l200.756-200.741L274.884,133.045z"/>
</g>
<g>
</g>
<g>
</g>
<g>
</g>
<g>
</g>
<g>
</g>
<g>
</g>
<g>
</g>
<g>
</g>
<g>
</g>
<g>
</g>
<g>
</g>
<g>
</g>
<g>
</g>
<g>
</g>
<g>
</g>
</svg>
