<?xml version="1.0" encoding="iso-8859-1"?>
<!-- Generator: Adobe Illustrator 19.0.0, SVG Export Plug-In . SVG Version: 6.00 Build 0)  -->
<svg version="1.1" id="Capa_1" xmlns="http://www.w3.org/2000/svg" xmlns:xlink="http://www.w3.org/1999/xlink" x="0px" y="0px"
	 viewBox="0 0 490 490" style="enable-background:new 0 0 490 490;" xml:space="preserve">
<g>
	<path d="M445.808,107.103H297.001l-28.389-56.58h-162.45l-28.402,56.58H44.192C19.83,107.103,0,126.933,0,151.295v243.989
		c0,24.362,19.83,44.192,44.192,44.192h401.616c24.362,0,44.192-19.83,44.192-44.176V151.295
		C490,126.933,470.17,107.103,445.808,107.103z M125.057,81.149h124.644l13.039,25.955H112.019L125.057,81.149z M459.375,395.3
		c0,7.488-6.094,13.567-13.567,13.567H44.192c-7.488,0-13.567-6.094-13.567-13.567V151.295c0-7.488,6.079-13.567,13.567-13.567
		h401.616c7.488,0,13.567,6.094,13.567,13.567V395.3z"/>
	<path d="M244.923,182.9c-49.995,0-90.681,40.548-90.681,90.39c0,49.857,40.685,90.405,90.681,90.405
		c50.011,0,90.681-40.563,90.681-90.405C335.604,223.448,294.934,182.9,244.923,182.9z M244.923,333.055
		c-33.121,0-60.056-26.812-60.056-59.78c0-32.953,26.935-59.765,60.056-59.765c33.106,0,60.056,26.812,60.056,59.765
		C304.979,306.242,278.029,333.055,244.923,333.055z"/>
	<path d="M382.368,168.859c-22.295,0-40.44,18.099-40.44,40.348s18.145,40.348,40.44,40.348c22.295,0,40.44-18.099,40.44-40.348
		S404.664,168.859,382.368,168.859z M382.368,218.93c-5.421,0-9.815-4.364-9.815-9.723c0-5.359,4.395-9.723,9.815-9.723
		c5.405,0,9.815,4.364,9.815,9.723C392.184,214.566,387.789,218.93,382.368,218.93z"/>
</g>
<g>
</g>
<g>
</g>
<g>
</g>
<g>
</g>
<g>
</g>
<g>
</g>
<g>
</g>
<g>
</g>
<g>
</g>
<g>
</g>
<g>
</g>
<g>
</g>
<g>
</g>
<g>
</g>
<g>
</g>
</svg>
