<?xml version="1.0" encoding="iso-8859-1"?>
<!-- Generator: Adobe Illustrator 19.0.0, SVG Export Plug-In . SVG Version: 6.00 Build 0)  -->
<svg version="1.1" id="Capa_1" xmlns="http://www.w3.org/2000/svg" xmlns:xlink="http://www.w3.org/1999/xlink" x="0px" y="0px"
	 viewBox="0 0 490 490" style="enable-background:new 0 0 490 490;" xml:space="preserve">
<g>
	<path d="M390.935,167.212c0-79.938-65.6-144.956-146.241-144.956c-80.641,0-146.241,65.018-146.241,144.956
		c0,79.938,65.6,144.956,146.241,144.956C325.335,312.168,390.935,247.15,390.935,167.212z M244.694,281.579
		c-63.763,0-115.637-51.307-115.637-114.352S180.931,52.876,244.694,52.876s115.637,51.307,115.637,114.352
		S308.457,281.579,244.694,281.579z"/>
	<path d="M244.694,100.159c-37.26,0-67.558,30.084-67.558,67.053c0,36.969,30.298,67.053,67.558,67.053
		c37.26,0,67.574-30.084,67.574-67.053C312.268,130.243,281.954,100.159,244.694,100.159z M244.694,203.677
		c-20.382,0-36.954-16.342-36.954-36.449c0-20.107,16.572-36.449,36.954-36.449s36.97,16.342,36.97,36.449
		C281.664,187.335,265.076,203.677,244.694,203.677z"/>
	<path d="M109.7,270.776l-12.701-16.174L0,392.427l91.016-13.68l18.5,88.996l95.01-134.979l-18.76-6.855
		C155.713,314.922,129.409,295.871,109.7,270.776z M125.109,392.396l-10.038-48.201l-48.89,7.33l32.761-46.549
		c16.71,17.337,36.373,31.553,58.132,41.989L125.109,392.396z"/>
	<path d="M379.994,270.394c-19.633,25.141-45.875,44.269-75.913,55.332l-18.684,6.871l95.086,135.147l18.5-88.996L490,392.427
		l-97.305-138.299L379.994,270.394z M374.929,344.195l-10.038,48.201l-32.119-45.631c21.729-10.497,41.361-24.759,58.025-42.157
		l33.006,46.916L374.929,344.195z"/>
</g>
<g>
</g>
<g>
</g>
<g>
</g>
<g>
</g>
<g>
</g>
<g>
</g>
<g>
</g>
<g>
</g>
<g>
</g>
<g>
</g>
<g>
</g>
<g>
</g>
<g>
</g>
<g>
</g>
<g>
</g>
</svg>
