<?xml version="1.0" encoding="iso-8859-1"?>
<!-- Generator: Adobe Illustrator 19.0.0, SVG Export Plug-In . SVG Version: 6.00 Build 0)  -->
<svg version="1.1" id="Capa_1" xmlns="http://www.w3.org/2000/svg" xmlns:xlink="http://www.w3.org/1999/xlink" x="0px" y="0px"
	 viewBox="0 0 490 490" style="enable-background:new 0 0 490 490;" xml:space="preserve">
<g>
	<path d="M0,147.011l342.997,342.982L490,342.989L147.018,0.008L0,147.011z M342.982,447.125l-32.162-32.162l61.128-61.128
		l-21.437-21.436l-61.127,61.127l-32.15-32.149l61.11-61.11l-21.437-21.437l-61.11,61.11l-32.158-32.158l61.116-61.116
		l-21.437-21.437l-61.116,61.116l-32.149-32.15l61.12-61.12l-21.437-21.437l-61.12,61.12l-32.151-32.151l61.116-61.116
		l-21.436-21.437l-61.116,61.116l-32.162-32.162L147.018,42.875l300.1,300.115L342.982,447.125z"/>
</g>
<g>
</g>
<g>
</g>
<g>
</g>
<g>
</g>
<g>
</g>
<g>
</g>
<g>
</g>
<g>
</g>
<g>
</g>
<g>
</g>
<g>
</g>
<g>
</g>
<g>
</g>
<g>
</g>
<g>
</g>
</svg>
