<?xml version="1.0" encoding="iso-8859-1"?>
<!-- Generator: Adobe Illustrator 19.0.0, SVG Export Plug-In . SVG Version: 6.00 Build 0)  -->
<svg version="1.1" id="Capa_1" xmlns="http://www.w3.org/2000/svg" xmlns:xlink="http://www.w3.org/1999/xlink" x="0px" y="0px"
	 viewBox="0 0 490 490" style="enable-background:new 0 0 490 490;" xml:space="preserve">
<path d="M445.977,191.085h-9.218v-58.019c0-24.163-19.753-43.825-44.023-43.825H44.023C19.753,89.241,0,108.902,0,133.066V308.21
	c0,24.163,19.753,43.824,44.023,43.824h21.719c6.919,27.938,32.308,48.724,62.485,48.724c30.176,0,55.566-20.786,62.485-48.724
	h108.577c6.919,27.938,32.308,48.724,62.485,48.724c30.182,0,55.574-20.794,62.488-48.74h21.715
	c24.27,0,44.023-19.661,44.023-43.824v-73.301C490,210.746,470.247,191.085,445.977,191.085z M128.227,370.149
	c-18.605,0-33.733-14.991-33.733-33.412c0-18.406,15.129-33.397,33.733-33.397c18.605,0,33.733,14.976,33.733,33.397
	C161.96,355.158,146.831,370.149,128.227,370.149z M361.773,370.149c-18.605,0-33.734-14.991-33.734-33.412
	c0-18.406,15.129-33.397,33.734-33.397s33.733,14.976,33.733,33.397C395.507,355.158,380.378,370.149,361.773,370.149z
	 M459.375,308.195c0,7.289-6.018,13.199-13.398,13.199h-21.723c-6.925-27.927-32.31-48.694-62.481-48.694
	c-30.176,0-55.565,20.775-62.485,48.709H190.711c-6.919-27.934-32.309-48.709-62.485-48.709s-55.565,20.775-62.484,48.709H44.023
	c-7.381,0-13.398-5.911-13.398-13.199V133.066c0-7.289,6.018-13.2,13.398-13.2h348.711c7.381,0,13.398,5.926,13.398,13.2v88.629
	h39.843c7.381,0,13.398,5.926,13.398,13.199V308.195z"/>
<g>
</g>
<g>
</g>
<g>
</g>
<g>
</g>
<g>
</g>
<g>
</g>
<g>
</g>
<g>
</g>
<g>
</g>
<g>
</g>
<g>
</g>
<g>
</g>
<g>
</g>
<g>
</g>
<g>
</g>
</svg>
