<?xml version="1.0" encoding="iso-8859-1"?>
<!-- Generator: Adobe Illustrator 19.0.0, SVG Export Plug-In . SVG Version: 6.00 Build 0)  -->
<svg version="1.1" id="Capa_1" xmlns="http://www.w3.org/2000/svg" xmlns:xlink="http://www.w3.org/1999/xlink" x="0px" y="0px"
	 viewBox="0 0 490 490" style="enable-background:new 0 0 490 490;" xml:space="preserve">
<path d="M347.732,108.397h-87.419V0h-30.625v0.046l-53.318,31.927l53.318,31.927v44.498h-87.419v166.585H0V490h490V274.982H347.732
	V108.397z M172.893,139.022h144.213v135.96H172.893V139.022z M459.375,459.375H30.625V305.607h428.75V459.375z"/>
<rect x="69.871" y="335.114" width="31.268" height="30.625"/>
<rect x="69.871" y="399.886" width="31.268" height="30.625"/>
<rect x="133.663" y="398.6" width="31.268" height="30.625"/>
<rect x="133.035" y="335.114" width="31.268" height="30.625"/>
<rect x="196.827" y="334.486" width="31.268" height="30.625"/>
<rect x="196.827" y="399.243" width="31.268" height="30.625"/>
<rect x="260.634" y="399.243" width="31.268" height="30.625"/>
<rect x="260.634" y="335.114" width="31.268" height="30.625"/>
<rect x="388.876" y="335.114" width="31.268" height="30.625"/>
<rect x="325.069" y="398.6" width="31.268" height="30.625"/>
<rect x="388.876" y="399.243" width="31.268" height="30.625"/>
<rect x="325.069" y="334.486" width="31.268" height="30.625"/>
<rect x="203.534" y="165.36" width="31.268" height="30.625"/>
<rect x="203.534" y="218.31" width="31.268" height="30.625"/>
<rect x="254.57" y="217.682" width="31.268" height="30.625"/>
<rect x="255.213" y="165.36" width="31.268" height="30.625"/>
<g>
</g>
<g>
</g>
<g>
</g>
<g>
</g>
<g>
</g>
<g>
</g>
<g>
</g>
<g>
</g>
<g>
</g>
<g>
</g>
<g>
</g>
<g>
</g>
<g>
</g>
<g>
</g>
<g>
</g>
</svg>
