<?xml version="1.0" encoding="iso-8859-1"?>
<!-- Generator: Adobe Illustrator 19.0.0, SVG Export Plug-In . SVG Version: 6.00 Build 0)  -->
<svg version="1.1" id="Capa_1" xmlns="http://www.w3.org/2000/svg" xmlns:xlink="http://www.w3.org/1999/xlink" x="0px" y="0px"
	 viewBox="0 0 490 490" style="enable-background:new 0 0 490 490;" xml:space="preserve">
<path d="M88.047,333.047C88.047,419.593,158.454,490,245,490s156.953-70.407,156.953-156.953
	c0-58.249-32.524-111.628-83.652-138.685V30.625h42.875V0H128.824v30.625h42.875v163.737
	C120.571,221.419,88.047,274.798,88.047,333.047z M371.328,333.047c0,69.656-56.672,126.328-126.328,126.328
	c-69.657,0-126.328-56.672-126.328-126.328c0-49.582,29.293-94.784,74.618-115.15l9.034-4.073v-96.041
	c3.494-0.74,6.874-0.824,8.835,0.568c16.155,11.714,40.364,34.989,41.313,35.862c6.431,5.466,16.446,9.999,27.593,9.999
	c2.49,0,5.037-0.24,7.61-0.734v50.331l9.034,4.073C342.035,238.278,371.328,283.48,371.328,333.047z M287.676,30.625v99.766
	c-5.182,4.264-10.271,4.497-14.669,1.128c-1.057-1.011-25.985-24.99-43.886-37.96c-8.639-6.271-18.2-7.596-26.797-6.807V30.625
	H287.676z"/>
<g>
</g>
<g>
</g>
<g>
</g>
<g>
</g>
<g>
</g>
<g>
</g>
<g>
</g>
<g>
</g>
<g>
</g>
<g>
</g>
<g>
</g>
<g>
</g>
<g>
</g>
<g>
</g>
<g>
</g>
</svg>
