<?xml version="1.0" encoding="iso-8859-1"?>
<!-- Generator: Adobe Illustrator 19.0.0, SVG Export Plug-In . SVG Version: 6.00 Build 0)  -->
<svg version="1.1" id="Capa_1" xmlns="http://www.w3.org/2000/svg" xmlns:xlink="http://www.w3.org/1999/xlink" x="0px" y="0px"
	 viewBox="0 0 490 490" style="enable-background:new 0 0 490 490;" xml:space="preserve">
<g>
	<path d="M294.766,132.285L229.688,245l65.078,112.715h130.156L490,245l-65.078-112.715H294.766z M407.251,327.09h-94.8L265.044,245
		l47.392-82.09h94.8L454.643,245L407.251,327.09z"/>
	<path d="M195.234,225.431l65.078-112.715L195.234,0H65.078L0,112.715l65.078,112.715H195.234z M82.764,30.625h94.784l47.392,82.09
		l-47.392,82.09H82.764l-47.407-82.09L82.764,30.625z"/>
	<path d="M195.234,490l65.078-112.715l-65.078-112.715H65.078L0,377.285L65.078,490H195.234z M82.764,295.194h94.784l47.392,82.09
		l-47.392,82.09H82.764l-47.392-82.09L82.764,295.194z"/>
</g>
<g>
</g>
<g>
</g>
<g>
</g>
<g>
</g>
<g>
</g>
<g>
</g>
<g>
</g>
<g>
</g>
<g>
</g>
<g>
</g>
<g>
</g>
<g>
</g>
<g>
</g>
<g>
</g>
<g>
</g>
</svg>
