<?xml version="1.0" encoding="iso-8859-1"?>
<!-- Generator: Adobe Illustrator 19.0.0, SVG Export Plug-In . SVG Version: 6.00 Build 0)  -->
<svg version="1.1" id="Capa_1" xmlns="http://www.w3.org/2000/svg" xmlns:xlink="http://www.w3.org/1999/xlink" x="0px" y="0px"
	 viewBox="0 0 490 490" style="enable-background:new 0 0 490 490;" xml:space="preserve">
<path d="M238.638,487.121l6.355,2.879l6.37-2.894c8.299-3.782,203.304-94.555,203.304-260.986V50.914l-7.12-4.517
	C444.545,44.498,372.836,0,244.992,0S45.44,44.498,42.454,46.397l-7.12,4.517v175.221
	C35.334,392.567,230.338,483.339,238.638,487.121z M65.959,68.37c20.228-10.382,82.688-37.745,179.034-37.745
	c96.377,0,158.852,27.379,179.034,37.745v157.765c0,130.983-146.449,213.303-179.034,229.979
	c-32.585-16.675-179.034-98.995-179.034-229.979V68.37z"/>
<polygon points="225.637,153.952 226.403,153.952 226.418,153.952 226.418,347.441 281.635,347.441 281.635,103.222 
	234.289,103.222 169.67,133.28 179.057,176.109 "/>
<g>
</g>
<g>
</g>
<g>
</g>
<g>
</g>
<g>
</g>
<g>
</g>
<g>
</g>
<g>
</g>
<g>
</g>
<g>
</g>
<g>
</g>
<g>
</g>
<g>
</g>
<g>
</g>
<g>
</g>
</svg>
